# xmcd
#
# Track frame offsets: 
#        150
#        37211
#        73352
#        101252
#        146161
#        176854
#        243951
#
# Disc length: 3692 seconds
#
# Revision: 1
# Processed by: cddbd v1.5.2PL0 Copyright (c) Steve Scherf et al.
# Submitted via: ExactAudioCopyFreeDBPlugin 1.0
#
DISCID=6a0e6a07
DTITLE=Ivo Perelman, Mat Maneri, Joe Morris, Gerald Cleaver - Breaking
DTITLE=Point
DYEAR=2015
DGENRE=Jazz
TTITLE0=Harsh Moon
TTITLE1=Dance Matters
TTITLE2=Catch 22
TTITLE3=The Haunted French Horn
TTITLE4=Sound Healers
TTITLE5=The Forest of Feet and Bass Drums
TTITLE6=Breaking Point
EXTD=YEAR: 2015
EXTT0=
EXTT1=
EXTT2=
EXTT3=
EXTT4=
EXTT5=
EXTT6=
PLAYORDER=
